<mxfile host="app.diagrams.net" modified="2022-09-20T16:36:45.059Z" agent="5.0 (Macintosh; Intel Mac OS X 10_15_7) AppleWebKit/537.36 (KHTML, like Gecko) Chrome/105.0.0.0 Safari/537.36" etag="Scsw9K7i2AxpPS9-cRTh" version="20.2.3" type="github">
  <diagram id="WxiwqeKQ1Er_7Gsz-fjk" name="Page-1">
    <mxGraphModel dx="788" dy="1579" grid="1" gridSize="10" guides="1" tooltips="1" connect="1" arrows="1" fold="1" page="1" pageScale="1" pageWidth="850" pageHeight="1100" math="0" shadow="0">
      <root>
        <mxCell id="0" />
        <mxCell id="1" parent="0" />
        <mxCell id="dpgQAGMmdIM_ESeExjJj-3" value="&lt;hr&gt;" style="html=1;" vertex="1" parent="1">
          <mxGeometry x="270" y="180" width="220" height="140" as="geometry" />
        </mxCell>
        <mxCell id="dpgQAGMmdIM_ESeExjJj-6" value="" style="endArrow=none;html=1;rounded=0;entryX=1;entryY=0.75;entryDx=0;entryDy=0;exitX=0;exitY=0.75;exitDx=0;exitDy=0;" edge="1" parent="1" source="dpgQAGMmdIM_ESeExjJj-3" target="dpgQAGMmdIM_ESeExjJj-3">
          <mxGeometry width="50" height="50" relative="1" as="geometry">
            <mxPoint x="380" y="280" as="sourcePoint" />
            <mxPoint x="430" y="230" as="targetPoint" />
          </mxGeometry>
        </mxCell>
        <mxCell id="dpgQAGMmdIM_ESeExjJj-7" value="&lt;font style=&quot;font-size: 15px;&quot;&gt;x&lt;/font&gt;" style="text;html=1;strokeColor=none;fillColor=none;align=center;verticalAlign=middle;whiteSpace=wrap;rounded=0;" vertex="1" parent="1">
          <mxGeometry x="330" y="235" width="30" height="30" as="geometry" />
        </mxCell>
        <mxCell id="dpgQAGMmdIM_ESeExjJj-10" value="&lt;font style=&quot;font-size: 14px;&quot;&gt;no args&lt;/font&gt;" style="text;html=1;strokeColor=none;fillColor=none;align=center;verticalAlign=middle;whiteSpace=wrap;rounded=0;" vertex="1" parent="1">
          <mxGeometry x="350" y="290" width="60" height="30" as="geometry" />
        </mxCell>
        <mxCell id="dpgQAGMmdIM_ESeExjJj-12" value="&lt;font style=&quot;font-size: 14px;&quot;&gt;Stack&lt;/font&gt;&lt;span style=&quot;color: rgba(0, 0, 0, 0); font-family: monospace; font-size: 0px; text-align: start;&quot;&gt;%3CmxGraphModel%3E%3Croot%3E%3CmxCell%20id%3D%220%22%2F%3E%3CmxCell%20id%3D%221%22%20parent%3D%220%22%2F%3E%3CmxCell%20id%3D%222%22%20value%3D%22%26lt%3Bfont%20style%3D%26quot%3Bfont-size%3A%2014px%3B%26quot%3B%26gt%3Bno%20args%26lt%3B%2Ffont%26gt%3B%22%20style%3D%22text%3Bhtml%3D1%3BstrokeColor%3Dnone%3BfillColor%3Dnone%3Balign%3Dcenter%3BverticalAlign%3Dmiddle%3BwhiteSpace%3Dwrap%3Brounded%3D0%3B%22%20vertex%3D%221%22%20parent%3D%221%22%3E%3CmxGeometry%20x%3D%22350%22%20y%3D%22235%22%20width%3D%2260%22%20height%3D%2230%22%20as%3D%22geometry%22%2F%3E%3C%2FmxCell%3E%3C%2Froot%3E%3C%2FmxGraphModel%3E&lt;/span&gt;&lt;span style=&quot;color: rgba(0, 0, 0, 0); font-family: monospace; font-size: 0px; text-align: start;&quot;&gt;%3CmxGraphModel%3E%3Croot%3E%3CmxCell%20id%3D%220%22%2F%3E%3CmxCell%20id%3D%221%22%20parent%3D%220%22%2F%3E%3CmxCell%20id%3D%222%22%20value%3D%22%26lt%3Bfont%20style%3D%26quot%3Bfont-size%3A%2014px%3B%26quot%3B%26gt%3Bno%20args%26lt%3B%2Ffont%26gt%3B%22%20style%3D%22text%3Bhtml%3D1%3BstrokeColor%3Dnone%3BfillColor%3Dnone%3Balign%3Dcenter%3BverticalAlign%3Dmiddle%3BwhiteSpace%3Dwrap%3Brounded%3D0%3B%22%20vertex%3D%221%22%20parent%3D%221%22%3E%3CmxGeometry%20x%3D%22350%22%20y%3D%22235%22%20width%3D%2260%22%20height%3D%2230%22%20as%3D%22geometry%22%2F%3E%3C%2FmxCell%3E%3C%2Froot%3E%3C%2FmxGraphModel%3E&lt;/span&gt;" style="text;html=1;strokeColor=none;fillColor=none;align=center;verticalAlign=middle;whiteSpace=wrap;rounded=0;" vertex="1" parent="1">
          <mxGeometry x="350" y="-210" width="60" height="30" as="geometry" />
        </mxCell>
        <mxCell id="dpgQAGMmdIM_ESeExjJj-13" value="&lt;font style=&quot;font-size: 14px;&quot;&gt;AR&amp;nbsp;&lt;br&gt;main&lt;br&gt;&lt;/font&gt;" style="text;html=1;strokeColor=none;fillColor=none;align=center;verticalAlign=middle;whiteSpace=wrap;rounded=0;" vertex="1" parent="1">
          <mxGeometry x="200" y="235" width="60" height="30" as="geometry" />
        </mxCell>
        <mxCell id="dpgQAGMmdIM_ESeExjJj-16" value="&lt;font style=&quot;font-size: 14px;&quot;&gt;500&lt;/font&gt;" style="text;html=1;align=center;verticalAlign=middle;whiteSpace=wrap;rounded=0;fillColor=none;strokeColor=default;" vertex="1" parent="1">
          <mxGeometry x="370" y="235" width="60" height="30" as="geometry" />
        </mxCell>
        <mxCell id="dpgQAGMmdIM_ESeExjJj-17" value="&lt;font style=&quot;font-size: 15px;&quot;&gt;y&lt;/font&gt;" style="text;html=1;strokeColor=none;fillColor=none;align=center;verticalAlign=middle;whiteSpace=wrap;rounded=0;" vertex="1" parent="1">
          <mxGeometry x="330" y="190" width="30" height="30" as="geometry" />
        </mxCell>
        <mxCell id="dpgQAGMmdIM_ESeExjJj-18" value="&lt;font style=&quot;font-size: 14px;&quot;&gt;604&lt;/font&gt;" style="text;html=1;align=center;verticalAlign=middle;whiteSpace=wrap;rounded=0;fillColor=none;strokeColor=default;" vertex="1" parent="1">
          <mxGeometry x="370" y="190" width="60" height="30" as="geometry" />
        </mxCell>
        <mxCell id="dpgQAGMmdIM_ESeExjJj-21" value="&lt;hr&gt;" style="html=1;" vertex="1" parent="1">
          <mxGeometry x="270" y="-20" width="220" height="190" as="geometry" />
        </mxCell>
        <mxCell id="dpgQAGMmdIM_ESeExjJj-23" value="&lt;font style=&quot;font-size: 15px;&quot;&gt;p&lt;/font&gt;" style="text;html=1;strokeColor=none;fillColor=none;align=center;verticalAlign=middle;whiteSpace=wrap;rounded=0;" vertex="1" parent="1">
          <mxGeometry x="330" y="131" width="30" height="30" as="geometry" />
        </mxCell>
        <mxCell id="dpgQAGMmdIM_ESeExjJj-25" value="&lt;font style=&quot;font-size: 14px;&quot;&gt;AR&amp;nbsp;&lt;br&gt;quux&lt;br&gt;&lt;/font&gt;" style="text;html=1;strokeColor=none;fillColor=none;align=center;verticalAlign=middle;whiteSpace=wrap;rounded=0;" vertex="1" parent="1">
          <mxGeometry x="200" y="85" width="60" height="30" as="geometry" />
        </mxCell>
        <mxCell id="dpgQAGMmdIM_ESeExjJj-26" value="" style="text;html=1;align=center;verticalAlign=middle;whiteSpace=wrap;rounded=0;fillColor=none;strokeColor=default;" vertex="1" parent="1">
          <mxGeometry x="370" y="131" width="60" height="30" as="geometry" />
        </mxCell>
        <mxCell id="dpgQAGMmdIM_ESeExjJj-27" value="&lt;font style=&quot;font-size: 15px;&quot;&gt;q&lt;/font&gt;" style="text;html=1;strokeColor=none;fillColor=none;align=center;verticalAlign=middle;whiteSpace=wrap;rounded=0;" vertex="1" parent="1">
          <mxGeometry x="330" y="86" width="30" height="30" as="geometry" />
        </mxCell>
        <mxCell id="dpgQAGMmdIM_ESeExjJj-28" value="" style="text;html=1;align=center;verticalAlign=middle;whiteSpace=wrap;rounded=0;fillColor=none;strokeColor=default;" vertex="1" parent="1">
          <mxGeometry x="370" y="86" width="60" height="30" as="geometry" />
        </mxCell>
        <mxCell id="dpgQAGMmdIM_ESeExjJj-32" value="" style="endArrow=none;html=1;rounded=0;fontSize=15;exitX=0;exitY=0.5;exitDx=0;exitDy=0;entryX=1;entryY=0.5;entryDx=0;entryDy=0;" edge="1" parent="1" source="dpgQAGMmdIM_ESeExjJj-21" target="dpgQAGMmdIM_ESeExjJj-21">
          <mxGeometry width="50" height="50" relative="1" as="geometry">
            <mxPoint x="460" y="30" as="sourcePoint" />
            <mxPoint x="510" y="-20" as="targetPoint" />
          </mxGeometry>
        </mxCell>
        <mxCell id="dpgQAGMmdIM_ESeExjJj-34" value="" style="ellipse;whiteSpace=wrap;html=1;aspect=fixed;fontSize=15;strokeColor=default;fillColor=#000000;" vertex="1" parent="1">
          <mxGeometry x="395" y="96" width="10" height="10" as="geometry" />
        </mxCell>
        <mxCell id="dpgQAGMmdIM_ESeExjJj-35" value="" style="ellipse;whiteSpace=wrap;html=1;aspect=fixed;fontSize=15;strokeColor=default;fillColor=#000000;" vertex="1" parent="1">
          <mxGeometry x="395" y="141" width="10" height="10" as="geometry" />
        </mxCell>
        <mxCell id="dpgQAGMmdIM_ESeExjJj-36" value="&lt;font style=&quot;font-size: 15px;&quot;&gt;n&lt;/font&gt;" style="text;html=1;strokeColor=none;fillColor=none;align=center;verticalAlign=middle;whiteSpace=wrap;rounded=0;" vertex="1" parent="1">
          <mxGeometry x="330" y="20" width="30" height="30" as="geometry" />
        </mxCell>
        <mxCell id="dpgQAGMmdIM_ESeExjJj-37" value="&lt;font style=&quot;font-size: 14px;&quot;&gt;503&lt;/font&gt;" style="text;html=1;align=center;verticalAlign=middle;whiteSpace=wrap;rounded=0;fillColor=none;strokeColor=default;" vertex="1" parent="1">
          <mxGeometry x="370" y="20" width="60" height="30" as="geometry" />
        </mxCell>
        <mxCell id="dpgQAGMmdIM_ESeExjJj-38" value="&lt;hr&gt;" style="html=1;" vertex="1" parent="1">
          <mxGeometry x="270" y="-170" width="220" height="140" as="geometry" />
        </mxCell>
        <mxCell id="dpgQAGMmdIM_ESeExjJj-39" value="&lt;font style=&quot;font-size: 15px;&quot;&gt;a&lt;/font&gt;" style="text;html=1;strokeColor=none;fillColor=none;align=center;verticalAlign=middle;whiteSpace=wrap;rounded=0;" vertex="1" parent="1">
          <mxGeometry x="330" y="-69" width="30" height="30" as="geometry" />
        </mxCell>
        <mxCell id="dpgQAGMmdIM_ESeExjJj-40" value="&lt;font style=&quot;font-size: 14px;&quot;&gt;AR&amp;nbsp;&lt;br&gt;bar&lt;br&gt;&lt;/font&gt;" style="text;html=1;strokeColor=none;fillColor=none;align=center;verticalAlign=middle;whiteSpace=wrap;rounded=0;" vertex="1" parent="1">
          <mxGeometry x="200" y="-115" width="60" height="30" as="geometry" />
        </mxCell>
        <mxCell id="dpgQAGMmdIM_ESeExjJj-41" value="" style="text;html=1;align=center;verticalAlign=middle;whiteSpace=wrap;rounded=0;fillColor=none;strokeColor=default;" vertex="1" parent="1">
          <mxGeometry x="370" y="-69" width="60" height="30" as="geometry" />
        </mxCell>
        <mxCell id="dpgQAGMmdIM_ESeExjJj-42" value="&lt;font style=&quot;font-size: 15px;&quot;&gt;b&lt;/font&gt;" style="text;html=1;strokeColor=none;fillColor=none;align=center;verticalAlign=middle;whiteSpace=wrap;rounded=0;" vertex="1" parent="1">
          <mxGeometry x="330" y="-114" width="30" height="30" as="geometry" />
        </mxCell>
        <mxCell id="dpgQAGMmdIM_ESeExjJj-43" value="" style="text;html=1;align=center;verticalAlign=middle;whiteSpace=wrap;rounded=0;fillColor=none;strokeColor=default;" vertex="1" parent="1">
          <mxGeometry x="370" y="-114" width="60" height="30" as="geometry" />
        </mxCell>
        <mxCell id="dpgQAGMmdIM_ESeExjJj-45" value="" style="ellipse;whiteSpace=wrap;html=1;aspect=fixed;fontSize=15;strokeColor=default;fillColor=#000000;" vertex="1" parent="1">
          <mxGeometry x="395" y="-104" width="10" height="10" as="geometry" />
        </mxCell>
        <mxCell id="dpgQAGMmdIM_ESeExjJj-46" value="" style="ellipse;whiteSpace=wrap;html=1;aspect=fixed;fontSize=15;strokeColor=default;fillColor=#000000;" vertex="1" parent="1">
          <mxGeometry x="395" y="-59" width="10" height="10" as="geometry" />
        </mxCell>
        <mxCell id="dpgQAGMmdIM_ESeExjJj-49" value="" style="endArrow=none;html=1;rounded=0;fontSize=14;entryX=1;entryY=0.25;entryDx=0;entryDy=0;exitX=0;exitY=0.25;exitDx=0;exitDy=0;" edge="1" parent="1" source="dpgQAGMmdIM_ESeExjJj-38" target="dpgQAGMmdIM_ESeExjJj-38">
          <mxGeometry width="50" height="50" relative="1" as="geometry">
            <mxPoint x="460" y="20" as="sourcePoint" />
            <mxPoint x="510" y="-30" as="targetPoint" />
          </mxGeometry>
        </mxCell>
        <mxCell id="dpgQAGMmdIM_ESeExjJj-50" value="&lt;font style=&quot;font-size: 14px;&quot;&gt;no local&lt;/font&gt;" style="text;html=1;strokeColor=none;fillColor=none;align=center;verticalAlign=middle;whiteSpace=wrap;rounded=0;" vertex="1" parent="1">
          <mxGeometry x="350" y="-170" width="60" height="30" as="geometry" />
        </mxCell>
        <mxCell id="dpgQAGMmdIM_ESeExjJj-51" value="" style="curved=1;endArrow=classic;html=1;rounded=0;fontSize=14;exitX=1;exitY=0.5;exitDx=0;exitDy=0;entryX=1;entryY=0.75;entryDx=0;entryDy=0;" edge="1" parent="1" source="dpgQAGMmdIM_ESeExjJj-35" target="dpgQAGMmdIM_ESeExjJj-16">
          <mxGeometry width="50" height="50" relative="1" as="geometry">
            <mxPoint x="460" y="110" as="sourcePoint" />
            <mxPoint x="530" y="250" as="targetPoint" />
            <Array as="points">
              <mxPoint x="510" y="130" />
              <mxPoint x="550" y="240" />
            </Array>
          </mxGeometry>
        </mxCell>
        <mxCell id="dpgQAGMmdIM_ESeExjJj-52" value="" style="curved=1;endArrow=classic;html=1;rounded=0;fontSize=14;exitX=1;exitY=0.5;exitDx=0;exitDy=0;entryX=1;entryY=0.5;entryDx=0;entryDy=0;" edge="1" parent="1" source="dpgQAGMmdIM_ESeExjJj-34" target="dpgQAGMmdIM_ESeExjJj-18">
          <mxGeometry width="50" height="50" relative="1" as="geometry">
            <mxPoint x="460" y="110" as="sourcePoint" />
            <mxPoint x="560" y="250" as="targetPoint" />
            <Array as="points">
              <mxPoint x="510" y="90" />
              <mxPoint x="550" y="170" />
            </Array>
          </mxGeometry>
        </mxCell>
        <mxCell id="dpgQAGMmdIM_ESeExjJj-53" value="" style="curved=1;endArrow=classic;html=1;rounded=0;fontSize=14;exitX=1;exitY=0;exitDx=0;exitDy=0;entryX=1;entryY=0.75;entryDx=0;entryDy=0;" edge="1" parent="1" source="dpgQAGMmdIM_ESeExjJj-46" target="dpgQAGMmdIM_ESeExjJj-37">
          <mxGeometry width="50" height="50" relative="1" as="geometry">
            <mxPoint x="460" y="110" as="sourcePoint" />
            <mxPoint x="510" y="60" as="targetPoint" />
            <Array as="points">
              <mxPoint x="520" y="-70" />
              <mxPoint x="540" y="10" />
            </Array>
          </mxGeometry>
        </mxCell>
        <mxCell id="dpgQAGMmdIM_ESeExjJj-54" value="" style="curved=1;endArrow=classic;html=1;rounded=0;fontSize=14;exitX=1;exitY=0.5;exitDx=0;exitDy=0;entryX=1;entryY=0.75;entryDx=0;entryDy=0;" edge="1" parent="1" source="dpgQAGMmdIM_ESeExjJj-45" target="dpgQAGMmdIM_ESeExjJj-28">
          <mxGeometry width="50" height="50" relative="1" as="geometry">
            <mxPoint x="460" y="40" as="sourcePoint" />
            <mxPoint x="570" y="40" as="targetPoint" />
            <Array as="points">
              <mxPoint x="520" y="-90" />
              <mxPoint x="570" y="20" />
            </Array>
          </mxGeometry>
        </mxCell>
      </root>
    </mxGraphModel>
  </diagram>
</mxfile>
